<svg id="Layer_3" enable-background="new 0 0 64 64" height="512" viewBox="0 0 64 64" width="512"
    xmlns="http://www.w3.org/2000/svg">
    <path d="m22 50v-7c0-2.761 2.239-5 5-5h28c2.761 0 5 2.239 5 5v7" fill="#797980" />
    <path d="m52 38h-25c-2.761 0-5 2.239-5 5v7h35v-7c0-2.761-2.239-5-5-5z" fill="#a1a1aa" />
    <path d="m34 42h14v8h-14z" fill="#9db5be" />
    <path d="m34 42h11v8h-11z" fill="#d1f2fd" />
    <path d="m30 58h-4c-1.105 0-2-.895-2-2v-2h8v2c0 1.105-.895 2-2 2z" fill="#65676e" />
    <path d="m56 58h-4c-1.105 0-2-.895-2-2v-2h8v2c0 1.105-.895 2-2 2z" fill="#65676e" />
    <path d="m20 50h42v4h-42z" fill="#a1a1aa" />
    <path d="m20 50h39v4h-39z" fill="#d7d7e2" />
    <path d="m36 50h10v4h-10z" fill="#b9955c" />
    <path d="m36 50h7v4h-7z" fill="#f7c77a" />
    <circle cx="54" cy="44" fill="#d1f2fd" r="2" />
    <circle cx="28" cy="44" fill="#d1f2fd" r="2" />
    <path d="m56 29h2c1.105 0 2 .895 2 2v2c0 1.105-.895 2-2 2h-2" fill="#797980" />
    <path d="m26 29h-2c-1.105 0-2 .895-2 2v2c0 1.105.895 2 2 2h2" fill="#797980" />
    <path d="m26 38v-11c0-2.761 2.239-5 5-5h20c2.761 0 5 2.239 5 5v11" fill="#a1a1aa" />
    <path d="m48 22h-17c-2.761 0-5 2.239-5 5v11h27v-11c0-2.761-2.239-5-5-5z" fill="#d7d7e2" />
    <path d="m52 34h-22v-6c0-1.105.895-2 2-2h18c1.105 0 2 .895 2 2z" fill="#63afe3" />
    <path d="m2 58h60v4h-60z" fill="#868992" />
    <path d="m6 54h10v4h-10z" fill="#b3b6c2" />
    <path d="m9 22h4v32h-4z" fill="#868992" />
    <circle cx="46" cy="8" fill="#f2a348" r="4" />
    <path
        d="m41 14c1.657 0 3-1.343 3-3s-1.343-3-3-3c-.395 0-.77.081-1.116.22-.345-1.276-1.499-2.22-2.884-2.22s-2.539.944-2.884 2.22c-.346-.139-.721-.22-1.116-.22-1.657 0-3 1.343-3 3s1.343 3 3 3z"
        fill="#63afe3" />
    <path
        d="m59 14c1.657 0 3-1.343 3-3s-1.343-3-3-3c-.395 0-.77.081-1.116.22-.345-1.276-1.499-2.22-2.884-2.22s-2.539.944-2.884 2.22c-.346-.139-.721-.22-1.116-.22-1.657 0-3 1.343-3 3s1.343 3 3 3z"
        fill="#63afe3" />
    <path d="m2 2h18v20h-18z" fill="#4a83aa" />
    <path d="m2 2h15v20h-15z" fill="#63afe3" />
    <path
        d="m12 13h-4c-.553 0-1-.447-1-1v-4c0-.553.447-1 1-1h4c1.654 0 3 1.346 3 3s-1.346 3-3 3zm-3-2h3c.552 0 1-.448 1-1s-.448-1-1-1h-3z"
        fill="#fff" />
    <path d="m7 12h2v5h-2z" fill="#fff" />
    <path d="m40 26h2v8h-2z" fill="#d7d7e2" />
    <path d="m34 45h14v2h-14z" fill="#a1a1aa" />
</svg>